HIERARCHY
ROOT root
{
	OFFSET 0.000000 0.000000 0.000000
	CHANNELS 6 Xposition Yposition Zposition Zrotation Yrotation Xrotation
	JOINT lhip
	{
		OFFSET 0.058581 -0.082280 -0.017664
		CHANNELS 3 Zrotation Yrotation Xrotation
		JOINT lknee
		{
			OFFSET 0.043451 -0.386469 0.008037
			CHANNELS 3 Zrotation Yrotation Xrotation
			JOINT lankle
			{
				OFFSET -0.014790 -0.426874 -0.037428
				CHANNELS 3 Zrotation Yrotation Xrotation
				JOINT ltoe
				{
					OFFSET 0.041054 -0.060286 0.122042
					CHANNELS 3 Zrotation Yrotation Xrotation
					End Site
					{
						OFFSET 0.000000 0.000000 0.000000
					}
				}
			}
		}
	}
	JOINT rhip
	{
		OFFSET -0.060310 -0.090513 -0.013543
		CHANNELS 3 Zrotation Yrotation Xrotation
		JOINT rknee
		{
			OFFSET -0.043257 -0.383688 -0.004843
			CHANNELS 3 Zrotation Yrotation Xrotation
			JOINT rankle
			{
				OFFSET 0.019056 -0.420046 -0.034562
				CHANNELS 3 Zrotation Yrotation Xrotation
				JOINT rtoe
				{
					OFFSET -0.034840 -0.062106 0.130323
					CHANNELS 3 Zrotation Yrotation Xrotation
					End Site
					{
						OFFSET 0.000000 0.000000 0.000000
					}
				}
			}
		}
	}
	JOINT lowerback
	{
		OFFSET 0.004439 0.124404 -0.038385
		CHANNELS 3 Zrotation Yrotation Xrotation
		JOINT upperback
		{
			OFFSET 0.004488 0.137956 0.026820
			CHANNELS 3 Zrotation Yrotation Xrotation
			JOINT chest
			{
				OFFSET -0.002265 0.056032 0.002855
				CHANNELS 3 Zrotation Yrotation Xrotation
				JOINT lowerneck
				{
					OFFSET -0.013390 0.211636 -0.033468
					CHANNELS 3 Zrotation Yrotation Xrotation
					JOINT upperneck
					{
						OFFSET 0.010113 0.088937 0.050410
						CHANNELS 3 Zrotation Yrotation Xrotation
						End Site
						{
							OFFSET 0.000000 0.000000 0.000000
						}
					}
				}
				JOINT lclavicle
				{
					OFFSET 0.071702 0.114000 -0.018898
					CHANNELS 3 Zrotation Yrotation Xrotation
					JOINT lshoulder
					{
						OFFSET 0.122921 0.045205 -0.019046
						CHANNELS 3 Zrotation Yrotation Xrotation
						JOINT lelbow
						{
							OFFSET 0.255332 -0.015649 -0.022946
							CHANNELS 3 Zrotation Yrotation Xrotation
							JOINT lwrist
							{
								OFFSET 0.265709 0.012698 -0.007375
								CHANNELS 3 Zrotation Yrotation Xrotation
								End Site
								{
									OFFSET 0.000000 0.000000 0.000000
								}
							}
						}
					}
				}
				JOINT rclavicle
				{
					OFFSET -0.082954 0.112472 -0.023707
					CHANNELS 3 Zrotation Yrotation Xrotation
					JOINT rshoulder
					{
						OFFSET -0.113228 0.046853 -0.008472
						CHANNELS 3 Zrotation Yrotation Xrotation
						JOINT relbow
						{
							OFFSET -0.260127 -0.014369 -0.031269
							CHANNELS 3 Zrotation Yrotation Xrotation
							JOINT rwrist
							{
								OFFSET -0.269108 0.006794 -0.006027
								CHANNELS 3 Zrotation Yrotation Xrotation
								End Site
								{
									OFFSET 0.000000 0.000000 0.000000
								}
							}
						}
					}
				}
			}
		}
	}
}
MOTION
Frames: 16
Frame Time: 0.033333
0.098619 -0.396274 1.005327 175.868115 0.893988 86.933358 2.297123 0.984971 6.158748 -2.174586 -6.943840 15.464210 2.373246 13.047106 -18.470417 0.000000 -0.000000 0.000000 2.355108 0.586921 -3.338890 2.071955 3.010246 13.502396 2.045683 -3.991335 -11.173495 0.000000 -0.000000 0.000000 1.726143 -1.924036 7.598412 2.282583 -2.615632 -1.044697 0.317644 -2.788984 4.151204 3.299270 4.013489 -3.839795 -1.347999 0.700105 6.285110 -29.722395 3.140603 1.152510 -55.682931 -6.651355 9.613371 9.396713 -32.865620 6.090734 0.112248 -3.902655 -3.444078 29.947405 -0.715985 1.347996 55.351138 1.405226 13.999360 -17.560847 26.976483 -4.997603 4.722117 2.054779 -3.631162 
0.107913 -0.386766 1.006768 176.684439 0.350576 86.156495 2.413821 0.594584 3.657020 -2.871317 -5.289110 22.461912 2.293509 12.314736 -17.411477 0.000000 -0.000000 0.000000 2.368730 0.043135 -1.128708 1.926538 2.785936 12.343555 1.477140 -3.906249 -11.757118 0.000000 -0.000000 0.000000 1.942257 -0.895372 8.198899 2.357219 -2.736352 -1.187519 0.164799 -2.725114 4.274346 3.506215 3.362590 -4.217887 -1.196170 -0.323153 6.412698 -30.046475 3.347590 1.444569 -55.399351 -7.017182 9.853450 9.076415 -32.694936 6.921809 -0.483054 -4.176115 -2.666522 29.916086 -0.607784 1.058226 56.615056 1.349664 14.403561 -17.141901 27.161978 -4.076703 4.850077 2.308313 -3.689825 
0.117370 -0.378235 1.007838 176.721496 -0.098431 85.491407 2.509646 0.230583 0.998628 -3.094654 -2.957399 29.126931 2.093857 12.486527 -15.821188 0.000000 -0.000000 0.000000 2.453411 -0.385305 0.567187 1.882364 3.044996 11.602280 0.811515 -3.513863 -12.119012 0.000000 -0.000000 0.000000 2.149858 0.111199 8.877185 2.194766 -2.490710 -1.337149 0.107976 -2.312220 4.351236 3.589719 2.465116 -4.500069 -0.897135 -0.963377 6.377899 -30.033506 3.492231 1.541597 -55.505348 -6.830388 9.712203 8.990034 -33.250602 7.102371 -0.339337 -4.179003 -3.120046 29.688409 -0.221147 1.061713 57.420828 1.445909 14.707884 -16.621737 28.011630 -3.233287 4.698603 2.346864 -3.764616 
0.130343 -0.365739 1.007623 176.280880 -0.454007 84.749509 2.768031 0.018561 -2.150030 -2.368076 0.228114 35.706253 2.292356 13.099124 -15.120879 0.000000 -0.000000 0.000000 2.804723 -1.113199 2.739540 1.733699 3.886743 10.568242 0.051146 -3.146056 -12.509233 0.000000 -0.000000 0.000000 2.150707 1.351068 9.384036 2.136284 -2.208844 -1.306284 0.236521 -1.739907 4.493788 3.520614 1.464504 -4.733633 -0.549806 -1.164127 6.315802 -30.054556 3.871956 1.945471 -55.836039 -6.234838 9.295759 9.187546 -34.601799 7.024579 0.306708 -4.321017 -4.659950 29.014350 0.544626 1.283815 57.756140 1.667821 15.499890 -15.655050 29.609986 -1.111146 3.884685 2.636498 -3.622279 
0.137883 -0.357974 1.007134 175.593739 -0.700295 84.323778 2.717532 -0.168580 -3.904972 -1.709706 2.075294 38.714369 2.513886 13.742904 -15.033519 0.000000 -0.000000 0.000000 2.905618 -1.339472 4.009220 1.655196 4.367646 10.036969 -0.052542 -2.783962 -12.767635 0.000000 -0.000000 0.000000 2.173125 2.017152 9.785411 1.974664 -1.894924 -1.437582 0.228035 -1.335287 4.690603 3.569367 0.892226 -4.869539 -0.505566 -1.341938 6.441904 -30.059705 4.283936 1.897772 -55.983293 -5.774326 9.192566 9.084140 -35.404797 7.332358 0.677842 -4.351795 -5.029359 28.663969 1.053994 1.244385 57.536310 2.027112 16.139480 -14.764436 30.417847 0.363408 3.564848 2.806044 -3.156939 
0.147246 -0.347906 1.006752 174.433725 -1.050146 83.762717 2.429901 -0.712824 -6.127304 -0.982789 4.058310 41.429600 2.646281 14.388419 -14.805355 0.000000 -0.000000 0.000000 3.006630 -1.387714 5.630529 1.599913 5.269516 9.504784 -0.204120 -2.438107 -12.952428 0.000000 -0.000000 0.000000 2.162298 2.910496 10.401996 1.732156 -1.491654 -1.595246 0.158428 -0.815139 4.911342 3.650637 0.366029 -5.088459 -0.491050 -1.511147 6.726880 -30.163771 4.871326 1.618430 -56.054121 -5.035526 9.157727 9.004332 -36.080296 7.633330 1.132902 -4.507351 -5.268832 28.381913 1.735037 1.044179 56.736329 2.803646 17.001440 -13.488835 31.286922 2.204977 3.148362 3.048572 -2.261163 
0.156079 -0.337313 1.006339 173.298143 -1.320440 83.256257 2.010012 -1.459667 -8.127550 -0.788330 5.243819 42.438666 2.640171 14.417959 -14.815469 0.000000 -0.000000 0.000000 3.082780 -1.655333 7.323878 1.583627 6.374609 8.840357 -0.133813 -2.183167 -13.406935 0.000000 -0.000000 0.000000 2.287139 3.717243 10.887476 1.434477 -1.147746 -1.790438 -0.054118 -0.401187 5.133752 3.775584 0.246938 -5.079277 -0.474718 -1.795970 7.255967 -29.939821 5.464457 1.265462 -56.370734 -4.224250 9.386847 9.202804 -36.015096 7.537309 1.099451 -4.465838 -5.402825 28.101101 2.302010 0.878234 55.834493 3.750105 17.485954 -12.206438 31.991505 3.874087 2.949478 3.358611 -1.234293 
0.164574 -0.326974 1.005303 172.088231 -1.495254 83.015008 1.503506 -2.359758 -10.076247 -1.125364 5.845887 41.527402 2.657963 14.556590 -14.755689 0.000000 -0.000000 0.000000 3.193695 -1.803034 8.742157 1.555882 7.335554 8.046348 -0.016622 -1.825621 -13.864411 0.000000 -0.000000 0.000000 2.405901 4.631052 11.264927 1.233820 -0.992669 -2.031869 -0.093901 0.019775 5.169935 3.714096 0.025004 -4.781683 -0.587795 -1.935433 7.379505 -29.925528 5.832133 0.957236 -56.569588 -3.406459 9.286187 9.019253 -35.316093 7.848521 1.293486 -4.355661 -5.658038 27.559666 2.697163 0.809667 54.938678 4.708485 17.925525 -11.364999 32.564472 4.738863 2.673799 3.622522 -0.949825 
0.173270 -0.315961 1.004161 171.058080 -1.421648 82.906021 0.977195 -2.758406 -12.111647 -1.229199 6.084842 39.654951 2.499832 14.170653 -14.865825 0.000000 -0.000000 0.000000 3.569598 -2.163300 10.118409 1.434084 8.383617 7.244025 0.110843 -1.516239 -14.104885 0.000000 -0.000000 0.000000 2.715975 5.029855 11.623810 0.975039 -0.761495 -2.304814 -0.344468 0.322314 5.178422 3.964165 0.260933 -4.933696 -0.525429 -1.981938 7.969665 -29.392101 6.036437 0.561727 -57.267759 -2.306444 9.651051 9.348970 -34.316893 7.627497 0.663007 -4.253068 -5.357241 27.267137 3.220909 0.815120 54.218704 5.461333 17.505729 -10.851923 33.295573 5.001853 2.799896 3.892399 -0.384738 
0.183532 -0.301915 1.001808 169.623461 -1.324103 82.913649 0.218653 -3.192073 -14.325701 -1.468180 6.740760 35.517580 2.471310 13.764125 -14.612164 0.000000 -0.000000 0.000000 3.883347 -2.219604 11.617461 1.533350 9.417906 6.419538 0.066521 -0.962745 -14.356088 0.000000 -0.000000 0.000000 2.893024 5.713698 11.878900 0.876098 -0.732778 -2.302716 -0.291168 0.761482 4.972987 3.827735 0.137725 -4.512443 -0.595963 -1.992665 7.548199 -29.730827 5.918954 0.387373 -57.272707 -0.897143 9.313350 9.237507 -33.123056 8.044667 0.410084 -4.051384 -5.252890 26.793678 3.419878 0.890317 53.232791 6.429643 17.201711 -11.031886 34.194825 4.747704 2.451526 3.995682 -0.763278 
0.191999 -0.289736 0.999268 168.576712 -1.065518 82.942604 -0.473208 -3.071321 -15.909542 -1.485393 7.068291 31.518126 2.156318 13.379058 -14.305959 0.000000 -0.000000 0.000000 4.319577 -2.536613 12.866637 1.476355 10.565055 5.844685 0.274455 -0.509941 -14.770382 0.000000 -0.000000 0.000000 3.135260 5.961565 12.094781 0.744309 -0.553300 -2.437221 -0.476316 1.051880 5.157331 4.205835 0.600127 -4.954357 -0.393787 -2.202296 7.942031 -29.139854 6.110224 -0.376650 -58.197051 -0.238774 9.783665 9.435818 -31.382488 7.824830 -0.313243 -3.889935 -4.467884 26.767495 3.491147 0.567460 52.693597 7.020750 16.603508 -11.315526 34.540394 3.944816 2.537920 4.325176 -0.364422 
0.200396 -0.277193 0.996331 167.642758 -0.763097 83.065240 -1.247399 -3.025356 -17.340736 -1.618330 7.453149 26.875391 2.221773 12.993366 -13.422722 0.000000 -0.000000 0.000000 4.703269 -2.908145 13.979804 1.523262 11.437246 5.365691 0.216830 -0.137487 -15.147099 0.000000 -0.000000 0.000000 3.329745 6.141869 12.298062 0.690000 -0.562315 -2.498623 -0.548478 1.223350 5.126214 4.400221 0.984132 -5.020008 -0.229157 -2.189846 7.821343 -29.064745 6.190531 -0.809952 -58.690396 0.580703 9.772951 9.930229 -30.259335 7.528942 -0.975243 -3.707912 -4.155541 26.674575 3.474381 0.515117 52.285195 7.588034 15.988055 -11.848928 34.824494 3.102564 2.475001 4.482303 -0.432484 
0.208491 -0.263606 0.992689 166.679880 -0.543249 83.283636 -1.911938 -3.634841 -18.241221 -2.278126 7.939868 21.122366 1.895795 12.827554 -11.333370 0.000000 -0.000000 0.000000 5.000625 -2.813320 15.253145 1.588164 11.811791 4.548137 -0.091562 0.360423 -15.220408 0.000000 -0.000000 0.000000 3.249956 6.886816 12.159996 0.877598 -1.035105 -2.201326 -0.079545 1.356386 4.938690 3.880671 0.716975 -4.308613 -0.452395 -1.914708 6.502770 -30.089278 6.020338 -0.031899 -58.185334 0.884583 9.057990 9.922206 -29.867899 7.691269 -0.137801 -3.786787 -5.390516 25.871856 3.277896 0.775485 52.075811 8.213051 16.445610 -12.815036 34.916227 2.107699 1.690568 4.380334 -2.132377 
0.217295 -0.248932 0.988905 165.898372 -0.111802 83.487031 -2.677858 -3.577316 -18.981479 -2.573346 8.075044 15.823016 1.308906 11.607505 -9.030395 0.000000 -0.000000 0.000000 5.396011 -3.181263 16.673177 1.620192 12.526487 3.647666 -0.128220 0.815042 -15.357548 0.000000 -0.000000 0.000000 3.450000 6.865192 12.102806 0.872397 -1.082790 -2.021117 -0.210930 1.542712 4.842015 4.147659 1.069340 -4.105609 -0.227784 -1.955793 6.297394 -29.909157 6.176932 -0.616277 -58.586471 1.395750 9.286490 10.338258 -28.941763 6.956013 -0.818070 -3.759306 -5.145121 26.101764 3.151141 0.806551 51.757402 8.314741 15.804499 -13.429539 34.971525 1.138474 1.653940 4.506040 -1.987573 
0.226598 -0.232944 0.984303 164.730811 0.190867 83.752671 -3.316532 -4.019914 -19.232600 -2.830525 8.069393 10.307729 0.543664 11.007908 -7.439721 0.000000 -0.000000 0.000000 5.673085 -3.134726 18.115202 1.588091 13.331399 2.792391 0.060658 1.288454 -15.263806 0.000000 -0.000000 0.000000 3.460636 7.436352 11.915369 0.903309 -1.244596 -1.893438 -0.027449 1.645508 4.796253 4.022111 1.302717 -3.659152 -0.224836 -1.873191 5.970697 -30.293109 6.261987 -0.369702 -58.377291 1.368467 9.059513 10.408230 -28.589125 6.611280 -0.493010 -3.699974 -5.434569 25.719722 2.886843 0.812162 52.026638 8.163201 16.130952 -14.247483 34.785927 0.466542 1.422191 4.477464 -2.669079 
0.236449 -0.216246 0.980283 163.548298 0.681879 84.050342 -3.847550 -4.223315 -19.717650 -2.495360 7.529484 6.489656 0.449462 10.652791 -6.627127 0.000000 -0.000000 0.000000 6.040896 -3.394624 19.402768 1.623795 14.269022 2.258237 0.084658 1.802667 -15.283974 0.000000 -0.000000 0.000000 3.575000 7.595989 11.735924 0.937778 -1.219531 -1.871161 -0.003804 1.858117 4.773447 4.052374 1.718930 -3.281295 -0.144287 -1.597873 5.763980 -30.482543 6.500789 -0.726067 -58.090326 1.641068 9.122042 10.432937 -28.615011 6.356137 -0.536468 -3.495824 -5.220835 25.874850 2.548275 0.821973 51.949369 7.738523 16.060365 -14.418552 34.629800 0.232167 1.503176 4.435174 -2.762927 
